<svg width="12" height="12" viewBox="-41 -41 108 108" fill="none" xmlns="http://www.w3.org/2000/svg">
<path d="M13.2252 4.11612C13.7134 3.62796 14.5048 3.62796 14.993 4.11612C15.4486 4.57173 15.479 5.29155 15.0841 5.78239L14.993 5.88388L3.373 17.503L3.277 20.722L6.496 20.626L18.1161 9.00702C18.5717 8.55141 19.2915 8.52103 19.7824 8.9159L19.8839 9.00702C20.3395 9.46263 20.3699 10.1825 19.975 10.6733L19.8839 10.7748L7.91395 22.7447C7.72086 22.9378 7.47083 23.0615 7.20281 23.0988L7.06748 23.1103L2.42599 23.2493C1.57521 23.2747 0.857535 22.6425 0.760366 21.7798L0.75 21.634L0.750561 21.574L0.889722 16.9325C0.897905 16.6595 0.995139 16.3981 1.1646 16.1872L1.25528 16.086L13.2252 4.11612Z" fill="white"/>
<path fill-rule="evenodd" clip-rule="evenodd" d="M13.8231 3.51813L14.9698 2.3714C16.0333 1.30794 17.6875 1.11305 18.969 1.90024L19.1387 2.0045C20.3018 2.71893 21.2802 3.69728 21.9947 4.86029L22.0994 5.03078C22.8868 6.3123 22.6919 7.96663 21.6284 9.03015L19.7746 10.8839C19.2865 11.3721 18.495 11.3721 18.0069 10.8839L13.8231 6.70011C12.9444 5.82143 12.9444 4.39681 13.8231 3.51813ZM17.8302 4.1347L17.6605 4.03044C17.3647 3.84878 16.983 3.89376 16.7376 4.13917L15.7668 5.10902L18.8898 8.23202L19.8606 7.26239C20.0788 7.04423 20.1385 6.71834 20.0215 6.44091L19.9693 6.33945L19.8646 6.16896C19.3556 5.34052 18.6587 4.64361 17.8302 4.1347Z" fill="white"/>
<path d="M21 20.75C21.6904 20.75 22.25 21.3096 22.25 22C22.25 22.6472 21.7581 23.1795 21.1278 23.2435L21 23.25H13C12.3096 23.25 11.75 22.6904 11.75 22C11.75 21.3528 12.2419 20.8205 12.8722 20.7565L13 20.75H21Z" fill="white"/>
</svg>
