<svg width="36" height="36" viewBox="0 0 36 36" fill="none" xmlns="http://www.w3.org/2000/svg">
<rect x="0.5" y="0.5" width="35" height="35" rx="7.5" fill="white" stroke="#E0E0E0"/>
<path fill-rule="evenodd" clip-rule="evenodd" d="M24.667 19.3333C25.0089 19.3333 25.2907 19.5906 25.3292 19.9222L25.3337 19.9999V23.9999C25.3337 24.7186 24.7461 25.2801 24.0295 25.3297L23.9263 25.3333H12.0744C11.3465 25.3333 10.7259 24.8044 10.6709 24.1015L10.667 23.9999V19.9999C10.667 19.6317 10.9655 19.3333 11.3337 19.3333C11.6755 19.3333 11.9573 19.5906 11.9958 19.9222L12.0003 19.9999V23.9999C12.0003 23.9875 12.0107 23.9937 12.0393 23.9976L12.0744 23.9999H23.9263C23.968 23.9999 23.9888 23.9906 23.9966 23.9929L24.0003 23.9999V19.9999C24.0003 19.6317 24.2988 19.3333 24.667 19.3333Z" fill="#333333"/>
<path fill-rule="evenodd" clip-rule="evenodd" d="M17.6172 21.8777L17.5508 21.8242L13.5508 18.1575C13.2794 17.9087 13.2611 17.487 13.5099 17.2156C13.7395 16.965 14.1165 16.9301 14.3866 17.1219L14.4518 17.1746L17.3352 19.8181L17.3346 11.9994C17.3346 11.6312 17.6331 11.3327 18.0013 11.3327C18.3432 11.3327 18.625 11.5901 18.6635 11.9216L18.668 11.9994L18.6685 19.8168L21.5508 17.1746C21.8013 16.945 22.1799 16.9429 22.4324 17.1574L22.4927 17.2156C22.7224 17.4661 22.7244 17.8447 22.5099 18.0972L22.4518 18.1575L18.4518 21.8242L18.4077 21.8613L18.3555 21.8965C18.1298 22.0397 17.8373 22.0331 17.6172 21.8777Z" fill="#333333"/>
</svg>
