<svg width="36" height="36" viewBox="0 0 36 36" fill="none" xmlns="http://www.w3.org/2000/svg">
<rect x="0.5" y="0.5" width="35" height="35" rx="7.5" fill="white" stroke="#E0E0E0"/>
<path fill-rule="evenodd" clip-rule="evenodd" d="M24.6667 19.3333C25.0085 19.3333 25.2903 19.5907 25.3288 19.9222L25.3333 20V24C25.3333 24.7187 24.7458 25.2802 24.0291 25.3298L23.9259 25.3333H12.0741C11.3462 25.3333 10.7255 24.8045 10.6706 24.1015L10.6667 24V20C10.6667 19.6318 10.9651 19.3333 11.3333 19.3333C11.6752 19.3333 11.957 19.5907 11.9955 19.9222L12 20V24C12 23.9875 12.0104 23.9938 12.039 23.9976L12.0741 24H23.9259C23.9677 24 23.9885 23.9907 23.9962 23.993L24 24V20C24 19.6318 24.2985 19.3333 24.6667 19.3333Z" fill="#333333"/>
<path fill-rule="evenodd" clip-rule="evenodd" d="M18.3846 11.4544L18.451 11.508L22.451 15.1746C22.7225 15.4234 22.7408 15.8451 22.492 16.1166C22.2623 16.3671 21.8853 16.402 21.6152 16.2102L21.5501 16.1575L18.6666 13.514L18.6672 21.3327C18.6672 21.7009 18.3688 21.9994 18.0006 21.9994C17.6587 21.9994 17.3769 21.742 17.3384 21.4105L17.3339 21.3327L17.3333 13.5153L14.451 16.1575C14.2005 16.3872 13.8219 16.3892 13.5695 16.1747L13.5091 16.1166C13.2795 15.866 13.2774 15.4874 13.4919 15.235L13.5501 15.1746L17.5501 11.508L17.5942 11.4709L17.6464 11.4357C17.8721 11.2925 18.1645 11.299 18.3846 11.4544Z" fill="#333333"/>
</svg>
