<svg width="36" height="36" viewBox="0 0 36 36" fill="none" xmlns="http://www.w3.org/2000/svg">
<rect x="0.5" y="0.5" width="35" height="35" rx="7.5" fill="white" stroke="#E0E0E0"/>
<path fill-rule="evenodd" clip-rule="evenodd" d="M21.9092 17.6362C22.2822 17.6362 22.5895 17.917 22.6316 18.2787L22.6365 18.3635V20.909H25.1819C25.5836 20.909 25.9092 21.2346 25.9092 21.6362C25.9092 22.0092 25.6284 22.3166 25.2667 22.3586L25.1819 22.3635H22.6365V24.909C22.6365 25.3106 22.3108 25.6362 21.9092 25.6362C21.5362 25.6362 21.2288 25.3555 21.1868 24.9938L21.1819 24.909V22.3635H18.6365C18.2348 22.3635 17.9092 22.0379 17.9092 21.6362C17.9092 21.2633 18.1899 20.9559 18.5516 20.9139L18.6365 20.909H21.1819V18.3635C21.1819 17.9618 21.5075 17.6362 21.9092 17.6362Z" fill="#333333"/>
<path fill-rule="evenodd" clip-rule="evenodd" d="M19 10C19.1363 10 19.2692 10.0383 19.3839 10.1096L19.4662 10.1691L24.5859 14.4452C24.8942 14.7027 24.9354 15.1613 24.6779 15.4696C24.4402 15.7542 24.0311 15.8111 23.7271 15.6157L23.6535 15.5616L18.736 11.4545H13.1818C12.8088 11.4545 12.5014 11.7353 12.4594 12.097L12.4545 12.1818V23.8182C12.4545 24.1912 12.7353 24.4986 13.097 24.5406L13.1818 24.5455H16.8182C17.2198 24.5455 17.5455 24.8711 17.5455 25.2727C17.5455 25.6457 17.2647 25.9531 16.903 25.9951L16.8182 26H13.1818C12.0199 26 11.0701 25.0917 11.0037 23.9464L11 23.8182V12.1818C11 11.0199 11.9083 10.0701 13.0536 10.0037L13.1818 10H19Z" fill="#333333"/>
<path fill-rule="evenodd" clip-rule="evenodd" d="M19 10C19.3729 10 19.6803 10.2808 19.7224 10.6425L19.7273 10.7273V14.3636H24.0909C24.4639 14.3636 24.7713 14.6444 24.8133 15.0061L24.8182 15.0909C24.8182 15.4639 24.5374 15.7713 24.1757 15.8133L24.0909 15.8182H19C18.627 15.8182 18.3196 15.5374 18.2776 15.1757L18.2727 15.0909V10.7273C18.2727 10.3256 18.5983 10 19 10Z" fill="#333333"/>
</svg>
