<svg width="16" height="16" viewBox="0 0 16 16" fill="none" xmlns="http://www.w3.org/2000/svg">
<path fill-rule="evenodd" clip-rule="evenodd" d="M6.5462 0C2.93084 0 0 2.93084 0 6.5462C0 10.1616 2.93084 13.0924 6.5462 13.0924C10.1616 13.0924 13.0924 10.1616 13.0924 6.5462C13.0924 2.93084 10.1616 0 6.5462 0ZM6.5462 1.45471C9.35815 1.45471 11.6377 3.73425 11.6377 6.5462C11.6377 9.35816 9.35815 11.6377 6.5462 11.6377C3.73425 11.6377 1.45471 9.35816 1.45471 6.5462C1.45471 3.73425 3.73425 1.45471 6.5462 1.45471Z" fill="#333333"/>
<path fill-rule="evenodd" clip-rule="evenodd" d="M10.4445 10.3521C10.753 10.0948 11.2117 10.1364 11.469 10.4449L15.1063 14.8068C15.3636 15.1153 15.322 15.574 15.0135 15.8313C14.705 16.0885 14.2463 16.047 13.9891 15.7385L10.3517 11.3765C10.0945 11.068 10.136 10.6094 10.4445 10.3521Z" fill="#333333"/>
</svg>
