<svg width="64" height="64" viewBox="0 0 64 64" fill="none" xmlns="http://www.w3.org/2000/svg">
<path fill-rule="evenodd" clip-rule="evenodd" d="M31.1192 7.6595C30.4483 7.5047 29.7788 7.9222 29.6236 8.59313C29.4683 9.26405 29.8867 9.934 30.5576 10.0893C33.6592 10.8061 36.4942 12.3809 38.7554 14.6422C45.4034 21.2904 45.4034 32.1087 38.7554 38.7569C32.1075 45.4056 21.2896 45.4056 14.6416 38.7569C7.99317 32.1087 7.99317 21.2904 14.6416 14.6422C16.5503 12.7334 18.8091 11.3413 21.3555 10.5034C22.0093 10.2885 22.3653 9.58389 22.1504 8.92957C21.9351 8.27524 21.23 7.91927 20.5762 8.13461C17.6553 9.0951 15.0654 10.6914 12.8784 12.8789C5.25782 20.4998 5.25782 32.8997 12.8784 40.5206C16.6885 44.3309 21.6934 46.2362 26.6988 46.2362C31.7036 46.2357 36.7085 44.3309 40.5191 40.5206C48.1392 32.8997 48.1392 20.4998 40.5191 12.8789C37.9268 10.287 34.6768 8.48179 31.1192 7.6595Z" fill="#AAAAAA"/>
<path fill-rule="evenodd" clip-rule="evenodd" d="M62.3018 54.0905L49.2354 41.0236C55.9356 30.5163 54.4683 16.7121 45.5772 7.82013C40.5347 2.77745 33.8301 0 26.6988 0C19.5669 0 12.8623 2.77745 7.81983 7.82013C2.77686 12.8628 0 19.5677 0 26.6998C0 33.8314 2.77686 40.5363 7.81983 45.5789C12.8623 50.6216 19.5664 53.3986 26.6978 53.3986C31.8159 53.3986 36.7461 51.963 41.022 49.2373L54.0884 62.3042C55.1817 63.398 56.6402 64.0001 58.1954 64.0001C59.7501 64.0001 61.2086 63.398 62.3023 62.3042C64.566 60.0395 64.566 56.3552 62.3018 54.0905ZM60.5386 60.5409C59.9161 61.163 59.084 61.5058 58.1954 61.5058C57.3062 61.5058 56.4742 61.163 55.8516 60.5409L42.0635 46.7523C41.8223 46.5106 41.503 46.3871 41.1817 46.3871C40.9346 46.3871 40.6866 46.4598 40.4712 46.6092C36.42 49.4194 31.6568 50.9048 26.6978 50.9048C20.2324 50.9048 14.1543 48.3871 9.58302 43.8157C0.145508 34.3778 0.145508 19.0213 9.58302 9.58338C14.1548 5.01143 20.2329 2.49375 26.6988 2.49375C33.1641 2.49375 39.2422 5.01143 43.814 9.58338C52.0992 17.8694 53.2745 30.8601 46.6075 40.4728C46.2637 40.9684 46.3238 41.6383 46.7505 42.0651L60.5386 55.8537C61.8306 57.1458 61.8306 59.2484 60.5386 60.5409Z" fill="#AAAAAA"/>
<path fill-rule="evenodd" clip-rule="evenodd" d="M34.2256 19.1721C33.7388 18.6853 32.9497 18.6853 32.4624 19.1721L26.6988 24.936L20.9346 19.1721C20.4478 18.6853 19.6582 18.6853 19.1714 19.1721C18.6846 19.659 18.6846 20.4486 19.1714 20.9354L24.9351 26.6998L19.1714 32.4637C18.6846 32.9505 18.6846 33.7401 19.1714 34.2269C19.4146 34.4706 19.7339 34.5922 20.0528 34.5922C20.3721 34.5922 20.6909 34.4706 20.9346 34.2269L26.6983 28.463L32.4619 34.2269C32.7056 34.4706 33.0249 34.5922 33.3438 34.5922C33.6631 34.5922 33.982 34.4706 34.2256 34.2269C34.7124 33.7401 34.7124 32.9505 34.2256 32.4637L28.4615 26.6998L34.2256 20.9354C34.7124 20.4486 34.7124 19.659 34.2256 19.1721Z" fill="#AAAAAA"/>
<path fill-rule="evenodd" clip-rule="evenodd" d="M25.8721 9.66632C26.5586 9.66632 27.1187 9.10626 27.1187 8.41925C27.1187 7.73273 26.5586 7.17267 25.8721 7.17267C25.1851 7.17267 24.625 7.73273 24.625 8.41925C24.625 9.10626 25.1851 9.66632 25.8721 9.66632Z" fill="#AAAAAA"/>
</svg>
