<svg width="36" height="36" viewBox="0 0 36 36" fill="none" xmlns="http://www.w3.org/2000/svg">
<path fill-rule="evenodd" clip-rule="evenodd" d="M22.894 10.9559L22.9519 11.0261L25.8609 15.026C26.0972 15.3509 26.0254 15.8057 25.7005 16.042C25.4007 16.26 24.99 16.2156 24.7428 15.952L24.6846 15.8816L23.0903 13.6894L23.091 24.5447C23.091 24.9463 22.7653 25.2719 22.3637 25.2719C21.9907 25.2719 21.6833 24.9912 21.6413 24.6295L21.6364 24.5447L21.6358 13.6908L20.0428 15.8816C19.8247 16.1814 19.4204 16.2657 19.104 16.091L19.0269 16.042C18.727 15.8239 18.6427 15.4196 18.8174 15.1032L18.8664 15.026L21.7755 11.0261C22.0478 10.6517 22.5882 10.6283 22.894 10.9559Z" fill="#333333"/>
<path fill-rule="evenodd" clip-rule="evenodd" d="M13.6364 10.7266C14.0094 10.7266 14.3168 11.0073 14.3588 11.369L14.3637 11.4538L14.363 22.3097L15.9573 20.1182C16.1935 19.7934 16.6484 19.7215 16.9732 19.9578C17.2731 20.1759 17.3573 20.5802 17.1827 20.8966L17.1336 20.9737L14.2246 24.9737C13.9523 25.3481 13.4119 25.3715 13.1061 25.0439L13.0482 24.9737L10.1392 20.9737C9.90291 20.6489 9.97472 20.194 10.2996 19.9578C10.5994 19.7397 11.01 19.7841 11.2572 20.0477L11.3155 20.1182L12.9085 22.3082L12.9091 11.4538C12.9091 11.0522 13.2347 10.7266 13.6364 10.7266Z" fill="#333333"/>
</svg>
